<?xml version="1.0" encoding="UTF-8" standalone="no"?>
<svg
   viewBox="0 0 150.66667 57.333332"
   height="57.333332"
   width="150.66667"
   xml:space="preserve"
   id="svg2"
   version="1.1"
   sodipodi:docname="logo.svg"
   inkscape:version="1.3.2 (091e20ef0f, 2023-11-25)"
   xmlns:inkscape="http://www.inkscape.org/namespaces/inkscape"
   xmlns:sodipodi="http://sodipodi.sourceforge.net/DTD/sodipodi-0.dtd"
   xmlns="http://www.w3.org/2000/svg"
   xmlns:svg="http://www.w3.org/2000/svg"
   xmlns:rdf="http://www.w3.org/1999/02/22-rdf-syntax-ns#"
   xmlns:cc="http://creativecommons.org/ns#"
   xmlns:dc="http://purl.org/dc/elements/1.1/"><sodipodi:namedview
     id="namedview1"
     pagecolor="#ffffff"
     bordercolor="#000000"
     borderopacity="0.25"
     inkscape:showpageshadow="2"
     inkscape:pageopacity="0.0"
     inkscape:pagecheckerboard="0"
     inkscape:deskcolor="#d1d1d1"
     inkscape:zoom="8.933628"
     inkscape:cx="75.333336"
     inkscape:cy="28.711739"
     inkscape:window-width="1920"
     inkscape:window-height="1011"
     inkscape:window-x="0"
     inkscape:window-y="0"
     inkscape:window-maximized="1"
     inkscape:current-layer="svg2" /><metadata
     id="metadata8"><rdf:RDF><cc:Work
         rdf:about=""><dc:format>image/svg+xml</dc:format><dc:type
           rdf:resource="http://purl.org/dc/dcmitype/StillImage" /></cc:Work></rdf:RDF></metadata><defs
     id="defs6" /><g
     transform="matrix(1.3333333,0,0,-1.3333333,0,57.333333)"
     id="g10"><g
       transform="scale(0.1)"
       id="g12"><path
         id="path14"
         style="fill:#ed1a52;fill-opacity:1;fill-rule:nonzero;stroke:none"
         d="m 1.08203,112.039 h 207.449 V 319.496 H 1.08203 Z" /><path
         id="path16"
         style="fill:#ed1a52;fill-opacity:1;fill-rule:nonzero;stroke:none"
         d="M 229.273,112.039 H 436.734 V 319.496 H 229.273 Z" /><path
         id="path18"
         style="fill:#ed1a52;fill-opacity:1;fill-rule:nonzero;stroke:none"
         d="M 457.488,112.039 H 664.929 V 319.496 H 457.488 Z" /><path
         id="path20"
         style="fill:#ed1a52;fill-opacity:1;fill-rule:nonzero;stroke:none"
         d="m 104.805,8.30859 h 207.469 v 207.457 H 104.805 Z" /><path
         id="path22"
         style="fill:#ed1a52;fill-opacity:1;fill-rule:nonzero;stroke:none"
         d="M 353.758,215.766 H 561.199 V 423.227 H 353.758 Z" /><path
         id="path24"
         style="fill:#080b0a;fill-opacity:1;fill-rule:nonzero;stroke:none"
         d="m 752.117,286.219 h -66.414 v 33.195 H 856.895 V 286.219 H 790.484 V 112.477 h -38.367 v 173.742" /><path
         id="path26"
         style="fill:#080b0a;fill-opacity:1;fill-rule:nonzero;stroke:none"
         d="m 1049.36,188.516 c 0,-12.461 -2.23,-23.711 -6.72,-33.746 -4.48,-10.036 -10.59,-18.559 -18.34,-25.563 -7.76,-7.031 -16.91,-12.422 -27.515,-16.211 -10.597,-3.808 -22.109,-5.703 -34.551,-5.703 -12.422,0 -23.933,1.895 -34.543,5.703 -10.601,3.789 -19.832,9.18 -27.664,16.211 -7.851,7.004 -13.972,15.527 -18.339,25.563 -4.395,10.035 -6.575,21.285 -6.575,33.746 v 130.898 h 38.383 V 189.836 c 0,-5.055 0.801,-10.359 2.442,-15.906 1.628,-5.543 4.332,-10.657 8.124,-15.328 3.778,-4.668 8.79,-8.512 15.028,-11.524 6.222,-3.008 13.933,-4.519 23.144,-4.519 9.2,0 16.922,1.511 23.157,4.519 6.23,3.012 11.25,6.856 15.029,11.524 3.78,4.671 6.48,9.785 8.12,15.328 1.64,5.547 2.46,10.851 2.46,15.906 v 129.578 h 38.36 V 188.516" /><path
         id="path28"
         style="fill:#080b0a;fill-opacity:1;fill-rule:nonzero;stroke:none"
         d="m 833.648,83.9727 c -7.605,3.2812 -17.46,4.8554 -25.339,4.8554 -22.93,0 -35.606,-14.4258 -35.606,-33.1758 0,-18.6132 12.395,-32.6367 33.352,-32.6367 5.347,0 9.59,0.5274 12.957,1.3086 v 23.8594 h -20.828 v 14.4219 h 39.687 V 13.3086 c -10.41,-2.6172 -21.262,-4.71485 -31.816,-4.71485 -31.809,0 -53.91,14.81245 -53.91,45.75005 0,31.3398 20.558,48.9062 53.91,48.9062 11.406,0 20.41,-1.445 28.855,-3.8086 l -1.262,-15.4687" /><path
         id="path30"
         style="fill:#080b0a;fill-opacity:1;fill-rule:nonzero;stroke:none"
         d="m 857.281,77.6836 h 16.762 V 62.3438 h 0.281 c 0.84,6.2968 8.574,16.914 19.832,16.914 1.84,0 3.821,0 5.774,-0.5312 V 61.0234 c -1.68,0.918 -5.059,1.4454 -8.45,1.4454 -15.332,0 -15.332,-17.8321 -15.332,-27.5196 V 10.1641 h -18.867 v 67.5195" /><path
         id="path32"
         style="fill:#080b0a;fill-opacity:1;fill-rule:nonzero;stroke:none"
         d="m 914.844,74.1406 c 7.312,3.1524 17.176,5.1172 25.203,5.1172 22.09,0 31.242,-8.5273 31.242,-28.457 v -8.6563 c 0,-6.8047 0.145,-11.9218 0.281,-16.9023 0.149,-5.1172 0.418,-9.836 0.852,-15.0781 h -16.613 c -0.704,3.5351 -0.704,8 -0.84,10.0976 h -0.293 C 950.32,12.793 940.879,8.59375 932.305,8.59375 c -12.805,0 -25.344,7.20705 -25.344,20.05465 0,10.0899 5.207,15.9883 12.391,19.2696 7.191,3.2812 16.464,3.9336 24.359,3.9336 h 10.41 c 0,10.8789 -5.207,14.5507 -16.328,14.5507 -8.02,0 -16.047,-2.8789 -22.375,-7.332 z m 22.109,-52.707 c 5.77,0 10.274,2.3633 13.223,6.0352 3.094,3.8007 3.945,8.6523 3.945,13.8945 h -8.164 c -8.437,0 -20.969,-1.3047 -20.969,-11.668 0,-5.7617 5.203,-8.2617 11.965,-8.2617" /><path
         id="path34"
         style="fill:#080b0a;fill-opacity:1;fill-rule:nonzero;stroke:none"
         d="M 986.773,77.6836 H 1044.2 V 63.2617 l -36.05,-39.4648 h 37.32 V 10.1641 h -60.247 v 14.2968 l 36.727,39.5899 h -35.177 v 13.6328" /><path
         id="path36"
         style="fill:#ed1a52;fill-opacity:1;fill-rule:nonzero;stroke:none"
         d="m 1060.73,8.30859 h 69.1133 v 69.1133 H 1060.73 Z" /></g></g><path
     style="fill:#f70146;stroke-width:0.111937;fill-opacity:1"
     d="m 13.992076,49.252107 v -6.94007 H 7.1079745 0.22387321 V 28.543835 14.775632 H 13.992076 27.760278 v 6.943414 6.943413 l 1.427192,-0.03133 1.427192,-0.03133 0.02884,-6.912086 0.02884,-6.912085 h 8.282455 8.282455 V 7.8915307 1.0074295 H 61.00545 74.773653 v 6.8841012 6.8841013 h 6.940069 6.94007 V 28.543835 42.312037 H 74.829621 61.00545 v -6.884101 -6.884101 h -1.399207 -1.399208 v 6.883383 6.883385 l -8.311293,0.0287 -8.311293,0.0287 -0.02884,6.912086 -0.02884,6.912085 H 27.759424 13.992076 Z"
     id="path1" /><path
     style="fill:#f70146;fill-opacity:1;stroke-width:0.111937"
     d="m 141.48787,51.602775 v -4.5894 h 4.53343 4.53344 v 4.5894 4.589401 h -4.53344 -4.53343 z"
     id="path2" /></svg>
